<mxfile host="app.diagrams.net" modified="2023-05-10T18:12:07.964Z" agent="Mozilla/5.0 (Windows NT 10.0; Win64; x64) AppleWebKit/537.36 (KHTML, like Gecko) Chrome/111.0.0.0 Safari/537.36 OPR/97.0.0.0" etag="e2AiEkSlFFrPbpjfmQOS" version="21.2.9" type="github">
  <diagram id="R2lEEEUBdFMjLlhIrx00" name="Page-1">
    <mxGraphModel dx="1007" dy="468" grid="1" gridSize="10" guides="1" tooltips="1" connect="1" arrows="1" fold="1" page="1" pageScale="1" pageWidth="850" pageHeight="1100" math="0" shadow="0" extFonts="Permanent Marker^https://fonts.googleapis.com/css?family=Permanent+Marker">
      <root>
        <mxCell id="0" />
        <mxCell id="1" parent="0" />
        <mxCell id="ZUrId8Ltw5tMt6VpQhxR-1" value="User" style="whiteSpace=wrap;html=1;align=center;" vertex="1" parent="1">
          <mxGeometry x="320" y="140" width="60" height="40" as="geometry" />
        </mxCell>
        <mxCell id="ZUrId8Ltw5tMt6VpQhxR-3" value="Id" style="ellipse;whiteSpace=wrap;html=1;align=center;fontStyle=4;" vertex="1" parent="1">
          <mxGeometry x="290" y="50" width="40" height="30" as="geometry" />
        </mxCell>
        <mxCell id="ZUrId8Ltw5tMt6VpQhxR-5" value="Phone" style="ellipse;whiteSpace=wrap;html=1;align=center;" vertex="1" parent="1">
          <mxGeometry x="380" y="90" width="40" height="30" as="geometry" />
        </mxCell>
        <mxCell id="ZUrId8Ltw5tMt6VpQhxR-6" value="Name" style="ellipse;whiteSpace=wrap;html=1;align=center;" vertex="1" parent="1">
          <mxGeometry x="360" y="50" width="50" height="30" as="geometry" />
        </mxCell>
        <mxCell id="ZUrId8Ltw5tMt6VpQhxR-13" value="" style="endArrow=none;html=1;rounded=0;exitX=0.5;exitY=1;exitDx=0;exitDy=0;entryX=0.18;entryY=0;entryDx=0;entryDy=0;entryPerimeter=0;" edge="1" parent="1" source="ZUrId8Ltw5tMt6VpQhxR-15" target="ZUrId8Ltw5tMt6VpQhxR-1">
          <mxGeometry relative="1" as="geometry">
            <mxPoint x="280" y="90" as="sourcePoint" />
            <mxPoint x="710" y="310" as="targetPoint" />
          </mxGeometry>
        </mxCell>
        <mxCell id="ZUrId8Ltw5tMt6VpQhxR-14" value="" style="endArrow=none;html=1;rounded=0;exitX=0.5;exitY=1;exitDx=0;exitDy=0;entryX=0.25;entryY=0;entryDx=0;entryDy=0;" edge="1" parent="1" source="ZUrId8Ltw5tMt6VpQhxR-3" target="ZUrId8Ltw5tMt6VpQhxR-1">
          <mxGeometry relative="1" as="geometry">
            <mxPoint x="550" y="310" as="sourcePoint" />
            <mxPoint x="710" y="310" as="targetPoint" />
          </mxGeometry>
        </mxCell>
        <mxCell id="ZUrId8Ltw5tMt6VpQhxR-15" value="Mail" style="ellipse;whiteSpace=wrap;html=1;align=center;fontStyle=4;" vertex="1" parent="1">
          <mxGeometry x="280" y="90" width="40" height="30" as="geometry" />
        </mxCell>
        <mxCell id="ZUrId8Ltw5tMt6VpQhxR-16" value="" style="endArrow=none;html=1;rounded=0;exitX=0.5;exitY=1;exitDx=0;exitDy=0;entryX=0.75;entryY=0;entryDx=0;entryDy=0;" edge="1" parent="1" source="ZUrId8Ltw5tMt6VpQhxR-6" target="ZUrId8Ltw5tMt6VpQhxR-1">
          <mxGeometry relative="1" as="geometry">
            <mxPoint x="550" y="310" as="sourcePoint" />
            <mxPoint x="710" y="310" as="targetPoint" />
          </mxGeometry>
        </mxCell>
        <mxCell id="ZUrId8Ltw5tMt6VpQhxR-2" value="Address" style="ellipse;whiteSpace=wrap;html=1;align=center;" vertex="1" parent="1">
          <mxGeometry x="320" y="85" width="60" height="30" as="geometry" />
        </mxCell>
        <mxCell id="ZUrId8Ltw5tMt6VpQhxR-17" value="" style="endArrow=none;html=1;rounded=0;exitX=0.5;exitY=0;exitDx=0;exitDy=0;entryX=0.5;entryY=1;entryDx=0;entryDy=0;" edge="1" parent="1" source="ZUrId8Ltw5tMt6VpQhxR-1" target="ZUrId8Ltw5tMt6VpQhxR-2">
          <mxGeometry relative="1" as="geometry">
            <mxPoint x="550" y="310" as="sourcePoint" />
            <mxPoint x="710" y="310" as="targetPoint" />
          </mxGeometry>
        </mxCell>
        <mxCell id="ZUrId8Ltw5tMt6VpQhxR-18" value="" style="endArrow=none;html=1;rounded=0;exitX=0.5;exitY=1;exitDx=0;exitDy=0;entryX=0.9;entryY=-0.025;entryDx=0;entryDy=0;entryPerimeter=0;" edge="1" parent="1" source="ZUrId8Ltw5tMt6VpQhxR-5" target="ZUrId8Ltw5tMt6VpQhxR-1">
          <mxGeometry relative="1" as="geometry">
            <mxPoint x="550" y="310" as="sourcePoint" />
            <mxPoint x="710" y="310" as="targetPoint" />
          </mxGeometry>
        </mxCell>
        <mxCell id="ZUrId8Ltw5tMt6VpQhxR-19" value="Payment Method" style="whiteSpace=wrap;html=1;align=center;" vertex="1" parent="1">
          <mxGeometry x="60" y="142.5" width="100" height="40" as="geometry" />
        </mxCell>
        <mxCell id="ZUrId8Ltw5tMt6VpQhxR-20" value="Name" style="ellipse;whiteSpace=wrap;html=1;align=center;" vertex="1" parent="1">
          <mxGeometry x="60" y="92.5" width="40" height="40" as="geometry" />
        </mxCell>
        <mxCell id="ZUrId8Ltw5tMt6VpQhxR-21" value="Token" style="ellipse;whiteSpace=wrap;html=1;align=center;fontStyle=4;" vertex="1" parent="1">
          <mxGeometry x="120" y="92.5" width="40" height="40" as="geometry" />
        </mxCell>
        <mxCell id="ZUrId8Ltw5tMt6VpQhxR-22" value="" style="endArrow=none;html=1;rounded=0;exitX=0.5;exitY=1;exitDx=0;exitDy=0;entryX=0.25;entryY=0;entryDx=0;entryDy=0;" edge="1" parent="1" source="ZUrId8Ltw5tMt6VpQhxR-20" target="ZUrId8Ltw5tMt6VpQhxR-19">
          <mxGeometry relative="1" as="geometry">
            <mxPoint x="350" y="292.5" as="sourcePoint" />
            <mxPoint x="510" y="292.5" as="targetPoint" />
          </mxGeometry>
        </mxCell>
        <mxCell id="ZUrId8Ltw5tMt6VpQhxR-23" value="" style="endArrow=none;html=1;rounded=0;exitX=0.75;exitY=0;exitDx=0;exitDy=0;entryX=0.5;entryY=1;entryDx=0;entryDy=0;" edge="1" parent="1" source="ZUrId8Ltw5tMt6VpQhxR-19" target="ZUrId8Ltw5tMt6VpQhxR-21">
          <mxGeometry relative="1" as="geometry">
            <mxPoint x="350" y="292.5" as="sourcePoint" />
            <mxPoint x="510" y="292.5" as="targetPoint" />
          </mxGeometry>
        </mxCell>
        <mxCell id="ZUrId8Ltw5tMt6VpQhxR-24" value="" style="shape=rhombus;perimeter=rhombusPerimeter;whiteSpace=wrap;html=1;align=center;" vertex="1" parent="1">
          <mxGeometry x="230" y="140" width="40" height="40" as="geometry" />
        </mxCell>
        <mxCell id="ZUrId8Ltw5tMt6VpQhxR-25" value="" style="endArrow=none;html=1;rounded=0;exitX=1;exitY=0;exitDx=0;exitDy=0;entryX=0;entryY=0.25;entryDx=0;entryDy=0;" edge="1" parent="1" source="ZUrId8Ltw5tMt6VpQhxR-24" target="ZUrId8Ltw5tMt6VpQhxR-1">
          <mxGeometry relative="1" as="geometry">
            <mxPoint x="340" y="350" as="sourcePoint" />
            <mxPoint x="500" y="350" as="targetPoint" />
          </mxGeometry>
        </mxCell>
        <mxCell id="ZUrId8Ltw5tMt6VpQhxR-26" value="" style="endArrow=none;html=1;rounded=0;exitX=1;exitY=1;exitDx=0;exitDy=0;entryX=0;entryY=0.75;entryDx=0;entryDy=0;" edge="1" parent="1" source="ZUrId8Ltw5tMt6VpQhxR-24" target="ZUrId8Ltw5tMt6VpQhxR-1">
          <mxGeometry relative="1" as="geometry">
            <mxPoint x="340" y="350" as="sourcePoint" />
            <mxPoint x="500" y="350" as="targetPoint" />
          </mxGeometry>
        </mxCell>
        <mxCell id="ZUrId8Ltw5tMt6VpQhxR-29" value="" style="triangle;whiteSpace=wrap;html=1;fillColor=#000000;" vertex="1" parent="1">
          <mxGeometry x="210" y="143.75" width="20" height="32.5" as="geometry" />
        </mxCell>
        <mxCell id="ZUrId8Ltw5tMt6VpQhxR-30" value="" style="endArrow=none;html=1;rounded=0;exitX=1;exitY=0.25;exitDx=0;exitDy=0;entryX=0;entryY=0.25;entryDx=0;entryDy=0;" edge="1" parent="1" source="ZUrId8Ltw5tMt6VpQhxR-19" target="ZUrId8Ltw5tMt6VpQhxR-29">
          <mxGeometry relative="1" as="geometry">
            <mxPoint x="310" y="240" as="sourcePoint" />
            <mxPoint x="470" y="240" as="targetPoint" />
          </mxGeometry>
        </mxCell>
        <mxCell id="ZUrId8Ltw5tMt6VpQhxR-31" value="" style="endArrow=none;html=1;rounded=0;entryX=0;entryY=0.75;entryDx=0;entryDy=0;" edge="1" parent="1" target="ZUrId8Ltw5tMt6VpQhxR-29">
          <mxGeometry relative="1" as="geometry">
            <mxPoint x="160" y="168" as="sourcePoint" />
            <mxPoint x="470" y="240" as="targetPoint" />
          </mxGeometry>
        </mxCell>
        <mxCell id="ZUrId8Ltw5tMt6VpQhxR-33" value="" style="endArrow=none;html=1;rounded=0;exitX=1;exitY=0.5;exitDx=0;exitDy=0;entryX=0;entryY=0.5;entryDx=0;entryDy=0;" edge="1" parent="1" source="ZUrId8Ltw5tMt6VpQhxR-1" target="ZUrId8Ltw5tMt6VpQhxR-34">
          <mxGeometry relative="1" as="geometry">
            <mxPoint x="420" y="162" as="sourcePoint" />
            <mxPoint x="480" y="160" as="targetPoint" />
          </mxGeometry>
        </mxCell>
        <mxCell id="ZUrId8Ltw5tMt6VpQhxR-34" value="" style="shape=rhombus;perimeter=rhombusPerimeter;whiteSpace=wrap;html=1;align=center;" vertex="1" parent="1">
          <mxGeometry x="420" y="140" width="40" height="40" as="geometry" />
        </mxCell>
        <mxCell id="ZUrId8Ltw5tMt6VpQhxR-37" value="Delivery" style="whiteSpace=wrap;html=1;align=center;" vertex="1" parent="1">
          <mxGeometry x="520" y="142.5" width="60" height="37.5" as="geometry" />
        </mxCell>
        <mxCell id="ZUrId8Ltw5tMt6VpQhxR-41" value="f" style="triangle;whiteSpace=wrap;html=1;fillColor=#000000;rotation=-180;" vertex="1" parent="1">
          <mxGeometry x="460" y="143.75" width="20" height="32.5" as="geometry" />
        </mxCell>
        <mxCell id="ZUrId8Ltw5tMt6VpQhxR-42" value="" style="endArrow=none;html=1;rounded=0;entryX=0;entryY=0.25;entryDx=0;entryDy=0;" edge="1" parent="1" target="ZUrId8Ltw5tMt6VpQhxR-41">
          <mxGeometry relative="1" as="geometry">
            <mxPoint x="520" y="168" as="sourcePoint" />
            <mxPoint x="780" y="306.25" as="targetPoint" />
          </mxGeometry>
        </mxCell>
        <mxCell id="ZUrId8Ltw5tMt6VpQhxR-43" value="" style="endArrow=none;html=1;rounded=0;entryX=0;entryY=0.75;entryDx=0;entryDy=0;" edge="1" parent="1" target="ZUrId8Ltw5tMt6VpQhxR-41">
          <mxGeometry relative="1" as="geometry">
            <mxPoint x="520" y="152" as="sourcePoint" />
            <mxPoint x="780" y="306.25" as="targetPoint" />
          </mxGeometry>
        </mxCell>
        <mxCell id="ZUrId8Ltw5tMt6VpQhxR-44" value="Date" style="ellipse;whiteSpace=wrap;html=1;align=center;" vertex="1" parent="1">
          <mxGeometry x="500" y="95" width="40" height="20" as="geometry" />
        </mxCell>
        <mxCell id="ZUrId8Ltw5tMt6VpQhxR-45" value="Delivery Number" style="ellipse;whiteSpace=wrap;html=1;align=center;fontStyle=4;" vertex="1" parent="1">
          <mxGeometry x="540" y="80" width="70" height="40" as="geometry" />
        </mxCell>
        <mxCell id="ZUrId8Ltw5tMt6VpQhxR-46" value="" style="endArrow=none;html=1;rounded=0;exitX=0.5;exitY=1;exitDx=0;exitDy=0;entryX=0.25;entryY=0;entryDx=0;entryDy=0;" edge="1" parent="1" source="ZUrId8Ltw5tMt6VpQhxR-44" target="ZUrId8Ltw5tMt6VpQhxR-37">
          <mxGeometry relative="1" as="geometry">
            <mxPoint x="430" y="250" as="sourcePoint" />
            <mxPoint x="590" y="250" as="targetPoint" />
          </mxGeometry>
        </mxCell>
        <mxCell id="ZUrId8Ltw5tMt6VpQhxR-48" value="" style="endArrow=none;html=1;rounded=0;exitX=0.5;exitY=1;exitDx=0;exitDy=0;entryX=0.75;entryY=0;entryDx=0;entryDy=0;" edge="1" parent="1" source="ZUrId8Ltw5tMt6VpQhxR-45" target="ZUrId8Ltw5tMt6VpQhxR-37">
          <mxGeometry relative="1" as="geometry">
            <mxPoint x="430" y="250" as="sourcePoint" />
            <mxPoint x="590" y="250" as="targetPoint" />
          </mxGeometry>
        </mxCell>
      </root>
    </mxGraphModel>
  </diagram>
</mxfile>
